<svg width="32" height="32" viewBox="0 0 32 32" fill="none" xmlns="http://www.w3.org/2000/svg">
  <rect width="32" height="32" fill="transparent"/>
  
  <!-- Left brace -->
  <path d="M5 6C5 4.5 6 3 7.5 3H9C9.5 3 10 3.5 10 4C10 4.5 9.5 5 9 5H8.5C8 5 7.5 5.5 7.5 6V11C7.5 12 7 13 6 13C7 13 7.5 14 7.5 15V20C7.5 20.5 8 21 8.5 21H9C9.5 21 10 21.5 10 22C10 22.5 9.5 23 9 23H7.5C6 23 5 21.5 5 20V6Z" fill="#2563eb"/>
  
  <!-- Right brace -->
  <path d="M27 6C27 4.5 26 3 24.5 3H23C22.5 3 22 3.5 22 4C22 4.5 22.5 5 23 5H23.5C24 5 24.5 5.5 24.5 6V11C24.5 12 25 13 26 13C25 13 24.5 14 24.5 15V20C24.5 20.5 24 21 23.5 21H23C22.5 21 22 21.5 22 22C22 22.5 22.5 23 23 23H24.5C26 23 27 21.5 27 20V6Z" fill="#2563eb"/>
  
  <!-- Center network nodes -->
  <circle cx="11" cy="8" r="2" fill="#2563eb"/>
  <circle cx="16" cy="13" r="2" fill="#2563eb"/>
  <circle cx="21" cy="8" r="2" fill="#2563eb"/>
  <circle cx="11" cy="18" r="2" fill="#2563eb"/>
  <circle cx="21" cy="18" r="2" fill="#2563eb"/>
  
  <!-- Connection lines -->
  <line x1="12" y1="9" x2="15" y2="12" stroke="#2563eb" stroke-width="1.5"/>
  <line x1="17" y1="12" x2="20" y2="9" stroke="#2563eb" stroke-width="1.5"/>
  <line x1="12" y1="17" x2="15" y2="14" stroke="#2563eb" stroke-width="1.5"/>
  <line x1="17" y1="14" x2="20" y2="17" stroke="#2563eb" stroke-width="1.5"/>
  
  <!-- Code symbols in center -->
  <text x="16" y="16" text-anchor="middle" font-family="monospace" font-size="4" font-weight="bold" fill="#2563eb">&lt;/&gt;</text>
</svg>